<svg width="303" height="227" viewBox="0 0 303 227" fill="none" xmlns="http://www.w3.org/2000/svg">
<g clip-path="url(#clip0_14_988)">
<path d="M139.729 48.4264H64.9831C64.6161 48.426 64.2643 48.2811 64.0048 48.0237C63.7453 47.7662 63.5993 47.4171 63.5989 47.0529V28.655C63.5993 28.2909 63.7453 27.9418 64.0048 27.6843C64.2643 27.4268 64.6161 27.282 64.9831 27.2815H139.729C140.096 27.282 140.448 27.4268 140.708 27.6843C140.967 27.9418 141.113 28.2909 141.114 28.655V47.0529C141.113 47.4171 140.967 47.7662 140.708 48.0237C140.448 48.2811 140.096 48.426 139.729 48.4264ZM64.9831 27.8309C64.7629 27.8311 64.5518 27.918 64.3961 28.0725C64.2404 28.227 64.1528 28.4365 64.1526 28.655V47.0529C64.1528 47.2714 64.2404 47.4809 64.3961 47.6354C64.5518 47.7899 64.7629 47.8768 64.9831 47.877H139.729C139.95 47.8768 140.161 47.7899 140.316 47.6354C140.472 47.4809 140.56 47.2714 140.56 47.0529V28.655C140.56 28.4365 140.472 28.227 140.316 28.0725C140.161 27.9181 139.95 27.8312 139.729 27.8309L64.9831 27.8309Z" fill="#3F3D56"/>
<path d="M76.5972 42.7429C79.7112 42.7429 82.2357 40.238 82.2357 37.148C82.2357 34.0581 79.7112 31.5532 76.5972 31.5532C73.4832 31.5532 70.9587 34.0581 70.9587 37.148C70.9587 40.238 73.4832 42.7429 76.5972 42.7429Z" fill="#818DFF"/>
<path d="M89.6193 33.4182C89.3701 33.4182 89.131 33.5164 88.9548 33.6913C88.7786 33.8661 88.6796 34.1033 88.6796 34.3506C88.6796 34.5979 88.7786 34.8351 88.9548 35.01C89.131 35.1849 89.3701 35.2831 89.6193 35.2831H133.921C134.171 35.2831 134.41 35.1849 134.586 35.01C134.762 34.8351 134.861 34.5979 134.861 34.3506C134.861 34.1033 134.762 33.8661 134.586 33.6913C134.41 33.5164 134.171 33.4182 133.921 33.4182H89.6193Z" fill="#E6E6E6"/>
<path d="M89.6193 39.013C89.3701 39.013 89.131 39.1112 88.9548 39.2861C88.7786 39.461 88.6796 39.6981 88.6796 39.9454C88.6796 40.1927 88.7786 40.4299 88.9548 40.6048C89.131 40.7797 89.3701 40.8779 89.6193 40.8779H108.683C108.806 40.8781 108.929 40.8542 109.043 40.8074C109.157 40.7607 109.261 40.692 109.348 40.6054C109.436 40.5188 109.505 40.4159 109.552 40.3027C109.6 40.1894 109.624 40.068 109.624 39.9454C109.624 39.8228 109.6 39.7015 109.552 39.5882C109.505 39.475 109.436 39.3721 109.348 39.2855C109.261 39.1989 109.157 39.1302 109.043 39.0835C108.929 39.0367 108.806 39.0127 108.683 39.013H89.6193Z" fill="#E6E6E6"/>
<path d="M107.279 114.007H74.0585C73.6915 114.006 73.3397 113.861 73.0802 113.604C72.8207 113.346 72.6747 112.997 72.6743 112.633V78.3028C72.6747 77.9387 72.8207 77.5896 73.0802 77.3321C73.3397 77.0746 73.6915 76.9297 74.0585 76.9293H107.279C107.646 76.9297 107.998 77.0746 108.257 77.3321C108.517 77.5896 108.663 77.9387 108.663 78.3028V112.633C108.663 112.997 108.517 113.346 108.257 113.604C107.998 113.861 107.646 114.006 107.279 114.007ZM74.0585 77.4787C73.8383 77.479 73.6272 77.5658 73.4715 77.7203C73.3158 77.8748 73.2282 78.0843 73.228 78.3028V112.633C73.2282 112.852 73.3158 113.061 73.4715 113.216C73.6272 113.37 73.8383 113.457 74.0585 113.457H107.279C107.499 113.457 107.71 113.37 107.866 113.216C108.022 113.061 108.109 112.852 108.11 112.633V78.3028C108.109 78.0843 108.022 77.8748 107.866 77.7203C107.71 77.5658 107.499 77.479 107.279 77.4787H74.0585Z" fill="#3F3D56"/>
<path d="M81.1371 84.0089C80.8879 84.0089 80.6489 84.1071 80.4726 84.282C80.2964 84.4568 80.1974 84.694 80.1974 84.9413C80.1974 85.1886 80.2964 85.4258 80.4726 85.6007C80.6489 85.7756 80.8879 85.8738 81.1371 85.8738H100.2C100.45 85.8738 100.689 85.7756 100.865 85.6007C101.041 85.4258 101.14 85.1886 101.14 84.9413C101.14 84.694 101.041 84.4568 100.865 84.282C100.689 84.1071 100.45 84.0089 100.2 84.0089H81.1371Z" fill="#E6E6E6"/>
<path d="M81.1371 89.5027C81.0136 89.5025 80.8912 89.5265 80.777 89.5732C80.6628 89.62 80.559 89.6887 80.4715 89.7753C80.3841 89.8619 80.3147 89.9647 80.2674 90.078C80.22 90.1912 80.1957 90.3126 80.1957 90.4352C80.1957 90.5578 80.22 90.6792 80.2674 90.7925C80.3147 90.9057 80.3841 91.0086 80.4715 91.0952C80.559 91.1818 80.6628 91.2504 80.777 91.2972C80.8912 91.344 81.0136 91.3679 81.1371 91.3677H100.2C100.45 91.3677 100.689 91.2694 100.865 91.0946C101.041 90.9197 101.14 90.6825 101.14 90.4352C101.14 90.1879 101.041 89.9507 100.865 89.7759C100.689 89.601 100.45 89.5027 100.2 89.5027H81.1371Z" fill="#E6E6E6"/>
<path d="M90.6688 106.927C89.4989 106.927 88.3552 106.583 87.3825 105.938C86.4097 105.293 85.6515 104.376 85.2038 103.304C84.7561 102.231 84.639 101.051 84.8672 99.9125C85.0954 98.7739 85.6588 97.7281 86.4861 96.9072C87.3133 96.0863 88.3673 95.5273 89.5148 95.3009C90.6622 95.0744 91.8516 95.1906 92.9325 95.6349C94.0133 96.0791 94.9372 96.8314 95.5871 97.7967C96.2371 98.7619 96.584 99.8967 96.584 101.058C96.5822 102.614 95.9585 104.106 94.8495 105.206C93.7406 106.306 92.2371 106.925 90.6688 106.927Z" fill="#818DFF"/>
<path d="M161.7 0H194.921C195.288 0.00042758 195.64 0.14527 195.899 0.402755C196.158 0.66024 196.304 1.00934 196.305 1.37348V35.7038C196.304 36.0679 196.158 36.417 195.899 36.6745C195.64 36.932 195.288 37.0768 194.921 37.0773H161.7C161.333 37.0768 160.981 36.932 160.722 36.6745C160.462 36.417 160.316 36.0679 160.316 35.7038V1.37348C160.316 1.00934 160.462 0.66024 160.722 0.402755C160.981 0.14527 161.333 0.00042758 161.7 0ZM194.921 36.5279C195.141 36.5276 195.352 36.4407 195.508 36.2862C195.663 36.1317 195.751 35.9223 195.751 35.7038V1.37348C195.751 1.15499 195.663 0.94552 195.508 0.791025C195.352 0.63653 195.141 0.54963 194.921 0.549391H161.7C161.48 0.54963 161.269 0.63653 161.113 0.791025C160.957 0.94552 160.87 1.15499 160.87 1.37348V35.7038C160.87 35.9223 160.957 36.1317 161.113 36.2862C161.269 36.4407 161.48 36.5276 161.7 36.5279H194.921Z" fill="#3F3D56"/>
<path d="M187.842 29.9977C188.091 29.9977 188.33 29.8995 188.507 29.7246C188.683 29.5497 188.782 29.3126 188.782 29.0653C188.782 28.8179 188.683 28.5808 188.507 28.4059C188.33 28.231 188.091 28.1328 187.842 28.1328H168.779C168.53 28.1328 168.29 28.231 168.114 28.4059C167.938 28.5808 167.839 28.8179 167.839 29.0653C167.839 29.3126 167.938 29.5497 168.114 29.7246C168.29 29.8995 168.53 29.9977 168.779 29.9977H187.842Z" fill="#E6E6E6"/>
<path d="M187.842 24.5038C188.091 24.5038 188.33 24.4056 188.507 24.2307C188.683 24.0558 188.782 23.8186 188.782 23.5713C188.782 23.324 188.683 23.0868 188.507 22.912C188.33 22.7371 188.091 22.6389 187.842 22.6389H168.779C168.53 22.6389 168.29 22.7371 168.114 22.912C167.938 23.0868 167.839 23.324 167.839 23.5713C167.839 23.8186 167.938 24.0558 168.114 24.2307C168.29 24.4056 168.53 24.5038 168.779 24.5038H187.842Z" fill="#E6E6E6"/>
<path d="M178.31 7.07953C179.48 7.07953 180.624 7.42377 181.597 8.06872C182.569 8.71366 183.328 9.63035 183.775 10.7029C184.223 11.7754 184.34 12.9555 184.112 14.0941C183.884 15.2327 183.32 16.2785 182.493 17.0994C181.666 17.9202 180.612 18.4792 179.464 18.7057C178.317 18.9322 177.128 18.816 176.047 18.3717C174.966 17.9275 174.042 17.1751 173.392 16.2099C172.742 15.2447 172.395 14.1099 172.395 12.949C172.397 11.3929 173.021 9.90096 174.13 8.8006C175.239 7.70024 176.742 7.08129 178.31 7.07953Z" fill="#818DFF"/>
<path d="M64.0258 71.0241C69.9044 66.5063 76.7726 63.4255 84.0742 62.0312C91.4339 60.6396 99.023 61.0266 106.2 63.1593C109.808 64.2253 113.274 65.7156 116.526 67.5987C119.838 69.5202 122.831 71.8855 125.711 74.39C128.629 76.9271 131.45 79.577 134.496 81.9655C143.191 88.8619 153.985 92.6298 165.116 92.6539C166.036 92.6554 166.955 92.6302 167.873 92.5785C168.371 92.5513 168.374 91.7793 167.873 91.8067C156.526 92.4266 145.322 89.067 136.22 82.3158C133.063 79.9737 130.181 77.2957 127.239 74.7007C124.386 72.1848 121.457 69.7374 118.22 67.7161C110.304 62.7674 101.094 60.2413 91.7404 60.4528C82.3864 60.6644 73.3023 63.6043 65.6214 68.9058C64.8911 69.4096 64.1777 69.9362 63.4758 70.4783C63.0812 70.7831 63.6352 71.3258 64.0258 71.0241Z" fill="#3F3D56"/>
<path d="M63.6129 74.755C65.8455 74.755 67.6554 72.9591 67.6554 70.7437C67.6554 68.5283 65.8455 66.7324 63.6129 66.7324C61.3802 66.7324 59.5703 68.5283 59.5703 70.7437C59.5703 72.9591 61.3802 74.755 63.6129 74.755Z" fill="#3F3D56"/>
<path d="M214.004 128.014C216.236 128.014 218.046 126.218 218.046 124.002C218.046 121.787 216.236 119.991 214.004 119.991C211.771 119.991 209.961 121.787 209.961 124.002C209.961 126.218 211.771 128.014 214.004 128.014Z" fill="#3F3D56"/>
<path d="M235.182 101.152H169.22C168.853 101.152 168.501 101.007 168.241 100.75C167.982 100.492 167.836 100.143 167.835 99.7789V65.7233C167.836 65.3591 167.982 65.01 168.241 64.7525C168.501 64.495 168.853 64.3502 169.22 64.3498H235.182C235.549 64.3502 235.901 64.495 236.16 64.7525C236.42 65.01 236.566 65.3591 236.566 65.7232V99.7788C236.566 100.143 236.42 100.492 236.16 100.75C235.901 101.007 235.549 101.152 235.182 101.152ZM169.22 64.8992C168.999 64.8994 168.788 64.9863 168.633 65.1408C168.477 65.2953 168.389 65.5048 168.389 65.7233V99.7788C168.389 99.9973 168.477 100.207 168.633 100.361C168.788 100.516 168.999 100.603 169.22 100.603H235.182C235.402 100.603 235.613 100.516 235.769 100.361C235.924 100.207 236.012 99.9973 236.012 99.7788V65.7233C236.012 65.5048 235.924 65.2953 235.769 65.1408C235.613 64.9863 235.402 64.8994 235.182 64.8992H169.22Z" fill="#3F3D56"/>
<path d="M180.28 82.0087C183.394 82.0087 185.918 79.5038 185.918 76.4139C185.918 73.3239 183.394 70.819 180.28 70.819C177.166 70.819 174.642 73.3239 174.642 76.4139C174.642 79.5038 177.166 82.0087 180.28 82.0087Z" fill="#818DFF"/>
<path d="M193.302 72.684C193.179 72.6837 193.056 72.7077 192.942 72.7545C192.828 72.8012 192.724 72.8699 192.637 72.9565C192.549 73.0431 192.48 73.1459 192.432 73.2592C192.385 73.3724 192.361 73.4938 192.361 73.6164C192.361 73.739 192.385 73.8604 192.432 73.9737C192.48 74.0869 192.549 74.1898 192.637 74.2764C192.724 74.363 192.828 74.4317 192.942 74.4784C193.056 74.5252 193.179 74.5491 193.302 74.5489H228.82C229.069 74.5489 229.308 74.4507 229.485 74.2758C229.661 74.1009 229.76 73.8637 229.76 73.6164C229.76 73.3691 229.661 73.1319 229.485 72.9571C229.308 72.7822 229.069 72.684 228.82 72.684H193.302Z" fill="#E6E6E6"/>
<path d="M193.302 78.2788C193.179 78.2786 193.056 78.3025 192.942 78.3493C192.828 78.3961 192.724 78.4647 192.637 78.5513C192.549 78.6379 192.48 78.7408 192.432 78.854C192.385 78.9673 192.361 79.0887 192.361 79.2113C192.361 79.3339 192.385 79.4553 192.432 79.5685C192.48 79.6818 192.549 79.7846 192.637 79.8712C192.724 79.9578 192.828 80.0265 192.942 80.0733C193.056 80.12 193.179 80.144 193.302 80.1438H212.365C212.615 80.1438 212.854 80.0455 213.03 79.8706C213.206 79.6958 213.305 79.4586 213.305 79.2113C213.305 78.964 213.206 78.7268 213.03 78.5519C212.854 78.3771 212.615 78.2788 212.365 78.2788H193.302Z" fill="#E6E6E6"/>
<path d="M175.955 87.2233C175.24 87.2233 174.659 87.6417 174.659 88.1558C174.659 88.6699 175.24 89.0882 175.955 89.0882H228.294C229.009 89.0882 229.591 88.6699 229.591 88.1558C229.591 87.6417 229.009 87.2233 228.294 87.2233H175.955Z" fill="#E6E6E6"/>
<path d="M175.955 92.8181C175.24 92.8181 174.659 93.2365 174.659 93.7506C174.659 94.2647 175.24 94.6831 175.955 94.6831H228.294C229.009 94.6831 229.591 94.2647 229.591 93.7506C229.591 93.2365 229.009 92.8181 228.294 92.8181H175.955Z" fill="#E6E6E6"/>
<path d="M163.917 127.737C167.639 126.135 171.793 127.532 175.301 129.008C177.107 129.768 178.894 130.58 180.764 131.18C182.337 131.684 183.947 132.063 185.581 132.313C188.858 132.811 192.192 132.831 195.475 132.373C198.775 131.916 201.992 130.988 205.024 129.618C208.039 128.262 210.827 126.454 213.288 124.257C213.601 123.976 213.908 123.689 214.209 123.395C214.568 123.047 214.017 122.501 213.659 122.849C211.289 125.142 208.568 127.048 205.597 128.497C202.639 129.94 199.483 130.946 196.231 131.482C192.968 132.028 189.641 132.085 186.36 131.651C184.724 131.432 183.108 131.083 181.528 130.609C179.712 130.023 177.932 129.337 176.194 128.553C172.653 127.045 168.72 125.568 164.83 126.608C164.384 126.73 163.948 126.885 163.525 127.07C163.067 127.268 163.462 127.933 163.917 127.737Z" fill="#3F3D56"/>
<path d="M162.479 137.204H131.316L138.65 124.599C138.781 124.373 138.97 124.186 139.198 124.055C139.425 123.925 139.684 123.856 139.947 123.856C140.209 123.856 140.468 123.925 140.695 124.055C140.923 124.186 141.112 124.373 141.244 124.599L144.376 129.984L149.704 120.828C149.868 120.545 150.105 120.31 150.39 120.147C150.675 119.984 150.998 119.898 151.327 119.898C151.657 119.898 151.98 119.984 152.265 120.147C152.55 120.31 152.787 120.545 152.951 120.828L162.479 137.204Z" fill="#818DFF"/>
<path d="M162.509 137.2H129.288C128.921 137.2 128.569 137.055 128.31 136.798C128.05 136.54 127.904 136.191 127.904 135.827V117.429C127.904 117.065 128.05 116.716 128.31 116.458C128.569 116.201 128.921 116.056 129.288 116.055H162.509C162.876 116.056 163.228 116.201 163.487 116.458C163.747 116.716 163.893 117.065 163.893 117.429V135.827C163.893 136.191 163.747 136.54 163.487 136.798C163.228 137.055 162.876 137.2 162.509 137.2ZM129.288 116.605C129.068 116.605 128.857 116.692 128.701 116.846C128.546 117.001 128.458 117.21 128.458 117.429V135.827C128.458 136.045 128.546 136.255 128.701 136.409C128.857 136.564 129.068 136.651 129.288 136.651H162.509C162.729 136.651 162.94 136.564 163.096 136.409C163.252 136.255 163.339 136.045 163.339 135.827V117.429C163.339 117.21 163.252 117.001 163.096 116.846C162.94 116.692 162.729 116.605 162.509 116.605H129.288Z" fill="#3F3D56"/>
<path d="M227.667 121.008L221.745 123.992C219.632 125.057 217.592 124.875 216.811 122.654C216.625 122.126 216.557 121.564 216.61 121.006C216.663 120.449 216.837 119.91 217.12 119.426C217.403 118.942 217.788 118.524 218.249 118.201C218.709 117.878 219.235 117.657 219.789 117.555L225.417 116.512L249.52 108.577L264.121 98.3042L269.473 106.765L252.602 115.799L227.667 121.008Z" fill="#FFB8B8"/>
<path d="M255.309 220.045L250.778 219.296L251.282 210.804H256.064L255.309 220.045Z" fill="#FFB8B8"/>
<path d="M299.28 211.751L294.895 213.109L291.488 205.304L295.757 203.165L299.28 211.751Z" fill="#FFB8B8"/>
<path d="M296.838 204.311L291.301 206.559L264.873 172.093L256.567 212.553L251.03 211.554C247.478 176.672 244.581 141.094 248.136 124.267L268.649 123.393L277.961 152.863L282.492 172.843L296.838 204.311Z" fill="#2F2E41"/>
<path d="M255.06 226.912C254.231 227.089 253.368 226.998 252.595 226.653L249.904 225.451C247.647 225.336 246.111 225.782 244.854 224.155C244.5 223.69 244.277 223.139 244.209 222.56C244.142 221.981 244.232 221.394 244.47 220.861C244.706 220.326 245.081 219.863 245.557 219.519C246.032 219.176 246.592 218.964 247.177 218.906L250.874 216.595L251.068 218.327C252.758 219.277 254.763 218.867 256.889 217.942L258.049 221.972C258.199 222.491 258.239 223.036 258.168 223.571C258.097 224.107 257.915 224.623 257.635 225.086C257.355 225.549 256.981 225.95 256.538 226.264C256.095 226.579 255.592 226.799 255.06 226.912Z" fill="#2F2E41"/>
<path d="M301.074 218.647C300.348 219.081 299.502 219.273 298.658 219.195L295.72 218.926C293.547 219.544 292.24 220.461 290.519 219.327C290.032 219.002 289.641 218.553 289.388 218.027C289.134 217.5 289.027 216.917 289.078 216.336C289.126 215.754 289.329 215.195 289.667 214.717C290.004 214.238 290.464 213.858 290.999 213.614L293.739 210.237L294.489 211.813C296.398 212.167 298.161 211.133 299.869 209.574L302.285 213.011C302.596 213.454 302.813 213.956 302.921 214.486C303.029 215.015 303.026 215.561 302.912 216.09C302.799 216.618 302.577 217.118 302.261 217.558C301.945 217.998 301.541 218.369 301.074 218.647Z" fill="#2F2E41"/>
<path d="M261.098 87.9285C266.102 87.9285 270.159 83.9032 270.159 78.9376C270.159 73.9721 266.102 69.9467 261.098 69.9467C256.094 69.9467 252.037 73.9721 252.037 78.9376C252.037 83.9032 256.094 87.9285 261.098 87.9285Z" fill="#FFB8B8"/>
<path d="M272.172 97.9185L260.343 95.421L258.833 85.6809L267.138 83.9327L272.172 97.9185Z" fill="#FFB8B8"/>
<path d="M268.9 124.641H247.758L252.523 112.769C252.177 108.684 253.922 105.68 256.419 103.064L259.588 95.1712C264.707 91.8281 268.566 92.0779 272.676 96.4199C277.548 103.266 274.176 113.556 268.9 124.641Z" fill="#818DFF"/>
<path d="M259.336 149.866L258.735 156.429C258.52 158.771 257.28 160.389 254.97 159.865C254.42 159.74 253.903 159.499 253.456 159.158C253.009 158.817 252.641 158.384 252.378 157.889C252.115 157.393 251.963 156.848 251.932 156.289C251.902 155.73 251.993 155.171 252.2 154.65L254.302 149.366L260.343 124.891L259.336 107.159H269.404L268.145 126.14L259.336 149.866Z" fill="#FFB8B8"/>
<path d="M270.159 107.659H258.581L259.392 100.164C259.446 98.8681 259.986 97.6385 260.906 96.717C261.826 95.7955 263.06 95.2487 264.366 95.1839C265.058 95.1496 265.75 95.2518 266.402 95.4845C267.053 95.7173 267.652 96.076 268.164 96.54C268.675 97.0039 269.088 97.5639 269.38 98.1874C269.672 98.8109 269.836 99.4857 269.863 100.173L270.159 107.659Z" fill="#818DFF"/>
<path d="M272.312 69.693C274.193 69.693 275.718 68.1799 275.718 66.3135C275.718 64.4471 274.193 62.9341 272.312 62.9341C270.431 62.9341 268.906 64.4471 268.906 66.3135C268.906 68.1799 270.431 69.693 272.312 69.693Z" fill="#2F2E41"/>
<path d="M268.803 65.4862C268.859 64.6288 269.242 63.8248 269.874 63.2379C270.507 62.6511 271.341 62.3255 272.207 62.3276C272.137 62.3188 272.067 62.308 271.995 62.3034C271.094 62.2465 270.207 62.5469 269.529 63.1387C268.851 63.7304 268.438 64.5651 268.38 65.4592C268.322 66.3533 268.624 67.2336 269.22 67.9067C269.816 68.5797 270.657 68.9904 271.558 69.0484C271.63 69.0529 271.7 69.0511 271.771 69.0513C270.912 68.9433 270.127 68.5145 269.575 67.8521C269.024 67.1897 268.748 66.3436 268.803 65.4862Z" fill="#2F2E41"/>
<path d="M268.784 66.9293C265.746 64.429 257.034 67.6067 256.472 69.2877C252.364 69.8431 249.255 72.221 249.255 76.4491C251.697 77.4418 254.474 77.3195 257.476 76.4491C262.262 80.3191 262.59 85.1842 259.679 90.772L263.26 90.8431L267.699 84.4063L267.911 90.9354L276.119 90.772V81.4155C276.145 78.3045 275.424 75.2321 274.014 72.4533C272.735 69.9876 270.75 68.5479 268.784 66.9293Z" fill="#2F2E41"/>
<path d="M261.14 83.4603C262.04 83.4603 262.769 82.4474 262.769 81.1978C262.769 79.9483 262.04 78.9354 261.14 78.9354C260.241 78.9354 259.512 79.9483 259.512 81.1978C259.512 82.4474 260.241 83.4603 261.14 83.4603Z" fill="#FFB8B8"/>
<path d="M56.2172 84.0688C56.2172 84.0688 57.1975 67.2309 62.2872 71.0569C67.3768 74.8829 60.0645 85.6304 60.0645 85.6304L56.2172 84.0688Z" fill="#FFB9B9"/>
<path d="M37.2815 134.014C37.2815 134.014 48.5873 146.608 42.2619 147.474C35.9365 148.34 33.4482 135.61 33.4482 135.61L37.2815 134.014Z" fill="#FFB9B9"/>
<path d="M22.5283 74.3999C23.9473 74.7705 25.2243 75.5487 26.199 76.6371C27.1737 77.7254 27.8026 79.0752 28.0067 80.517L31.603 105.916L36.6445 126.176C36.6445 126.176 39.1653 128.427 38.157 129.678C37.1487 130.929 39.4174 136.181 39.4174 136.181L33.1155 138.182C33.1155 138.182 32.3592 132.929 31.0989 132.679C29.9912 132.46 17.5917 99.5922 14.6029 91.63C14.1908 90.5321 13.9576 89.9077 13.9576 89.9077C13.9576 89.9077 14.4618 73.1493 22.5283 74.3999Z" fill="#575A89"/>
<path d="M23.6794 206.852L27.5502 213.659C30.5477 220.009 27.884 221.163 20.5343 218.015L18.859 209.978L23.6794 206.852Z" fill="#FFB9B9"/>
<path d="M25.6323 215.899C25.6323 215.899 27.4699 212.93 28.1345 213.427C28.7991 213.924 31.5404 216.077 31.5404 216.077L35.111 219.47C35.111 219.47 47.1746 220.736 39.5091 224.93C31.8436 229.124 27.6074 225.647 27.6074 225.647C27.6074 225.647 16.8711 226.201 17.0443 223.228C17.2175 220.256 20.68 215.554 20.68 215.554C20.68 215.554 25.044 218.457 25.6323 215.899Z" fill="#2F2E41"/>
<path d="M6.50269 129.915L10.1316 173.485C10.1316 173.485 10.2525 199.531 14.1234 204.572C17.9942 209.613 18.1151 212.134 18.1151 212.134L26.0987 208.053C26.0987 208.053 21.9859 201.253 22.8327 200.212C23.3546 199.551 23.726 198.787 23.9213 197.97L21.744 171.084L25.8567 124.274L6.50269 129.915Z" fill="#2F2E41"/>
<path d="M16.4215 206.853L13.0345 215.734L5.35339 212.548L9.40573 205.892L16.4215 206.853Z" fill="#FFB9B9"/>
<path d="M10.7711 212.743C10.7711 212.743 13.6519 210.956 14.012 211.671C14.3722 212.385 15.8126 215.423 15.8126 215.423L17.433 219.889C17.433 219.889 27.3359 226.142 18.8734 226.499C10.411 226.857 8.25039 222.033 8.25039 222.033C8.25039 222.033 -1.29235 217.924 0.148078 215.423C1.5885 212.921 6.62994 210.327 6.62994 210.327C6.62994 210.327 9.15065 214.708 10.7711 212.743Z" fill="#2F2E41"/>
<path d="M37.2272 130.035L39.1626 170.124C39.1626 170.124 21.5021 206.372 19.5667 207.332C18.99 207.628 18.4788 208.035 18.0632 208.53C17.6477 209.025 17.3363 209.597 17.1474 210.213L6.50269 207.573L11.3412 199.891L21.9859 174.205C21.9859 174.205 23.6794 173.485 24.1633 171.084C24.6471 168.684 25.6148 168.684 23.1956 168.204C20.7763 167.724 20.7763 165.323 20.7763 165.323L12.7927 128.835L37.2272 130.035Z" fill="#2F2E41"/>
<path d="M38.07 59.077C38.9261 53.8423 35.3435 48.9102 30.068 48.0607C24.7926 47.2112 19.8219 50.7661 18.9659 56.0008C18.1098 61.2354 21.6924 66.1676 26.9678 67.017C32.2433 67.8665 37.2139 64.3116 38.07 59.077Z" fill="#FFB9B9"/>
<path d="M19.9295 58.139C19.9295 58.139 19.2037 70.3818 18.236 71.582C17.2683 72.7823 28.3969 72.5422 28.3969 72.5422C28.3969 72.5422 27.6711 62.2199 28.3969 61.2597C29.1227 60.2995 19.9295 58.139 19.9295 58.139Z" fill="#FFB9B9"/>
<path d="M37.9521 132.676C37.9521 132.676 10.6144 130.276 5.53528 132.676C5.53528 132.676 7.40506 125.793 6.92193 125.074C6.57056 124.548 7.53996 104.943 7.23565 93.6335C7.0631 87.252 5.5792 81.0199 9.89287 76.282C11.3611 74.6726 12.9987 73.3216 14.7273 72.6616C14.7273 72.6616 14.2442 68.1012 16.663 67.8615C16.663 67.8615 25.8581 66.8996 29.2432 69.7822C30.3255 70.6974 31.0063 73.4866 31.0785 75.8897C29.4032 84.0643 29.9961 93.1355 31.5334 102.546C31.6275 103.144 31.731 103.744 31.8345 104.345C33.4659 113.678 35.9317 123.3 37.9521 132.676Z" fill="#575A89"/>
<path d="M23.4624 60.3683C24.2808 60.3198 25.0799 60.5943 25.8926 60.7013C28.8003 61.0844 31.8251 58.9908 32.4671 56.1509C32.5186 55.7727 32.6322 55.4054 32.8034 55.0637C33.2509 54.3388 34.27 54.2005 35.1102 54.3672C35.9503 54.5339 36.7467 54.9241 37.6023 54.9686C38.9234 55.0374 40.1917 54.2304 40.8957 53.1191C41.5611 51.9726 41.844 50.6467 41.7041 49.3311L41.0708 49.9906C40.8134 49.4504 40.7141 48.8494 40.784 48.2559C40.4484 48.1672 40.0955 48.1655 39.759 48.2509C39.4225 48.3363 39.1138 48.506 38.8624 48.7438C38.304 48.8027 38.7254 47.716 38.3105 47.3404C38.1088 47.2174 37.8683 47.1728 37.6353 47.2151C36.4473 47.2264 35.4863 46.3248 34.5501 45.599C32.9281 44.3442 31.0313 43.4857 29.013 43.0928C27.6716 42.8332 26.2451 42.7915 24.9729 43.2872C23.9459 43.7446 23.019 44.397 22.2445 45.2076C20.2527 47.108 18.489 49.3409 17.6604 51.9565C16.9867 54.0989 16.9677 56.3913 17.6055 58.5444C17.9394 59.6626 18.9457 63.4921 20.4188 63.5813C22.2698 63.6934 21.1585 60.5047 23.4624 60.3683Z" fill="#2F2E41"/>
<path d="M27.468 75.5785L30.9349 75.947C30.9349 75.947 34.3382 82.4987 34.0911 83.8652C33.8439 85.2318 33.3057 84.4022 34.8375 86.5885C36.3693 88.7749 40.7159 94.4263 41.2541 95.256C41.7924 96.0856 56.466 84.9766 55.5538 81.6481C55.5538 81.6481 60.1881 84.9471 62.1736 85.3862C62.1736 85.3862 47.0512 105.066 44.9439 107.584C42.8365 110.103 41.1405 109.585 38.2444 108.092C35.3483 106.599 20.6971 91.7043 20.6971 91.7043L27.468 75.5785Z" fill="#575A89"/>
<path opacity="0.1" d="M31.8345 104.345L19.7844 92.3883L22.8338 91.4015L31.5333 102.546C31.6274 103.144 31.7309 103.744 31.8345 104.345Z" fill="black"/>
</g>
<defs>
<clipPath id="clip0_14_988">
<rect width="303" height="227" fill="white"/>
</clipPath>
</defs>
</svg>
